<?xml version="1.0" encoding="UTF-8"?>
<svg width="880px" height="538px" viewBox="0 0 880 538" version="1.1" xmlns="http://www.w3.org/2000/svg" xmlns:xlink="http://www.w3.org/1999/xlink">
    <title>Combined Shape</title>
    <defs>
        <linearGradient x1="50%" y1="17.2366696%" x2="50%" y2="98.9100743%" id="linearGradient-1">
            <stop stop-color="#815454" offset="0%"></stop>
            <stop stop-color="#2D1A08" offset="100%"></stop>
        </linearGradient>
    </defs>
    <g id="Page-1" stroke="none" stroke-width="1" fill="none" fill-rule="evenodd">
        <path d="M791.698754,40.5940418 C830.649533,77.7649155 853.789581,109.058566 861.118897,134.474994 C883.230634,211.153544 879.404257,308.742939 866.893797,346.018077 C849.642555,397.41846 807.932393,428.832463 741.76331,440.260086 C722.124898,477.515743 679.489893,503.887603 613.858295,519.375667 C548.226697,534.863731 493.022175,532.965326 448.244728,513.680452 C368.609842,537.618223 296.292075,541.397843 231.291425,525.019313 C166.290775,508.640784 124.910043,484.3186 107.149229,452.052764 C64.39307,439.636138 38.1377869,423.342979 28.3833803,403.173287 C-4.61917554,334.932194 4.02022784,230.278194 4.02022784,188.704671 C4.02022784,128.69962 38.3965617,78.5639861 107.149229,38.2977691 C110.580938,35.76964 114.427483,33.3368149 118.688865,30.9992937 L123.695362,30.9997523 C116.717173,37.5453389 113,44.4158048 113,51.5 C113,95.9589224 259.402887,132 440,132 C620.597113,132 767,95.9589224 767,51.5 C767,44.4155303 763.282539,37.5448066 756.301632,30.9995972 L780,30.9989987 C779.999984,30.6539677 779.991912,30.3094114 779.975828,29.965341 C784.809977,33.3085221 788.72028,36.8514087 791.698754,40.5940418 Z M703.012657,3.65855362 C711.212477,5.19320353 718.886055,6.84065843 726.033392,8.60091829 C731.738005,11.95254 736.194888,15.4325223 739.289786,19.0148866 L738.453524,18.5568642 C729.004213,13.3767505 717.394942,8.48721593 703.907969,3.95774554 L703.012657,3.65855362 Z" id="Combined-Shape" stroke="#323232" stroke-width="6" fill="url(#linearGradient-1)"></path>
    </g>
</svg>