<?xml version="1.0" encoding="UTF-8"?>
<svg width="882px" height="506px" viewBox="0 0 882 506" version="1.1" xmlns="http://www.w3.org/2000/svg" xmlns:xlink="http://www.w3.org/1999/xlink">
    <title>pumpkin</title>
    <defs>
        <radialGradient cx="50%" cy="50%" fx="50%" fy="50%" r="111.219137%" gradientTransform="translate(0.5, 0.5), scale(0.5686, 1), rotate(90), scale(1, 2.097), translate(-0.5, -0.5)" id="radialGradient-1">
            <stop stop-color="#F78949" offset="0%"></stop>
            <stop stop-color="#000000" offset="100%"></stop>
        </radialGradient>
        <linearGradient x1="50%" y1="0%" x2="50%" y2="147.447126%" id="linearGradient-2">
            <stop stop-color="#35150A" stop-opacity="0.814220935" offset="0%"></stop>
            <stop stop-color="#5E2E11" offset="0.0191215035%"></stop>
            <stop stop-color="#F78949" offset="100%"></stop>
        </linearGradient>
        <path d="M436,77.8478261 C604.668369,77.8478261 741.401099,43.4418824 741.401099,1 L777,1 C777,56.7807597 624.3291,102 436,102 C247.6709,102 95,56.7807597 95,1 L130.598901,1 C130.598901,43.4418824 267.331631,77.8478261 436,77.8478261 Z" id="path-3"></path>
        <filter x="-1.2%" y="-7.9%" width="102.3%" height="115.8%" filterUnits="objectBoundingBox" id="filter-4">
            <feGaussianBlur stdDeviation="1.5" in="SourceAlpha" result="shadowBlurInner1"></feGaussianBlur>
            <feOffset dx="0" dy="1" in="shadowBlurInner1" result="shadowOffsetInner1"></feOffset>
            <feComposite in="shadowOffsetInner1" in2="SourceAlpha" operator="arithmetic" k2="-1" k3="1" result="shadowInnerInner1"></feComposite>
            <feColorMatrix values="0 0 0 0 1   0 0 0 0 1   0 0 0 0 1  0 0 0 0.536904502 0" type="matrix" in="shadowInnerInner1"></feColorMatrix>
        </filter>
    </defs>
    <g id="Page-1" stroke="none" stroke-width="1" fill="none" fill-rule="evenodd">
        <g id="pumpkin" transform="translate(4, 5)">
            <path d="M104.149229,0 C140.073142,64.156588 253.771642,96.2348821 445.244728,96.2348821 C636.717815,96.2348821 751.20249,64.9224711 788.698754,2.29764923 C827.649533,39.4908067 850.789581,70.8032176 858.118897,96.2348821 C880.230634,172.959401 876.404257,270.6073 863.893797,307.904783 C846.642555,359.335981 804.932393,390.768817 738.76331,402.20329 C719.124898,439.481281 676.489893,465.868952 610.858295,481.366301 C545.226697,496.86365 490.022175,494.964107 445.244728,475.667671 C365.609842,499.619792 293.292075,503.401679 228.291425,487.01333 C163.290775,470.624981 121.910043,446.288217 104.149229,414.003038 C61.39307,401.578968 35.1377869,385.276041 25.3833803,365.094258 C-7.61917554,296.812255 1.02022784,192.095515 1.02022784,150.49707 C1.02022784,90.4560462 35.3965617,40.2903562 104.149229,0 Z M647.828515,349.345994 C644.481516,338.460063 616.254947,336.182897 563.148809,342.514498 C572.278409,359.702441 562.889945,372.713953 534.983416,381.549035 C493.123623,394.801657 511.785084,354.097746 491.726974,354.79834 C474.15132,355.412226 411.719614,357.592853 388.378077,358.40813 C381.548246,358.646684 394.445048,386.457787 362.638359,387.568737 C341.433899,388.30937 330.503168,379.27064 329.846166,360.452545 C273.672825,344.640038 241.590598,345.760612 233.599484,363.814268 C222.298248,389.346205 260.757084,401.786359 313.159991,414.870915 C334.603109,420.225077 377.500599,422.596345 441.852461,421.984718 C513.913035,419.198613 558.194163,413.782354 574.695847,405.735939 C636.094619,375.797177 654.938391,372.470478 647.828515,349.345994 Z M426.103593,197.730729 L373.958481,306.819599 C373.472307,307.836686 373.238969,308.956148 373.278312,310.082773 C373.413233,313.946411 376.654706,316.969133 380.518344,316.834212 L492.289611,312.931073 C493.416209,312.891732 494.516641,312.580886 495.497319,312.024974 C498.860532,310.118484 500.04144,305.846547 498.134951,302.483333 L438.508796,197.297602 C437.802339,196.051352 436.730525,195.051856 435.438037,194.43404 C431.950046,192.76676 427.770873,194.242738 426.103593,197.730729 Z M269.939948,138.937387 L246.695646,253.239336 C246.491583,254.242799 246.510163,255.278814 246.750075,256.274315 C247.655833,260.032707 251.436873,262.345223 255.195265,261.439465 L347.346937,239.231262 C348.270806,239.008613 349.139666,238.600178 349.900567,238.030849 C352.995989,235.714759 353.627762,231.327863 351.311673,228.232442 L282.404302,136.138695 C281.375537,134.763764 279.877268,133.814952 278.194506,133.472748 C274.406054,132.702333 270.710363,135.148935 269.939948,138.937387 Z M574.588127,120.678962 L508.725174,217.630307 C508.159096,218.463584 507.779537,219.409225 507.612425,220.402638 C506.971098,224.215065 509.541782,227.825547 513.354209,228.466875 L613.669486,245.341936 C614.733964,245.521003 615.825433,245.451465 616.858579,245.138758 C620.558795,244.018798 622.650505,240.111274 621.530545,236.411059 L587.078221,122.584652 C586.613978,121.05085 585.637519,119.722773 584.311946,118.822258 C581.114073,116.649814 576.760571,117.481089 574.588127,120.678962 Z" id="Combined-Shape" stroke="#323232" stroke-width="7" fill="url(#radialGradient-1)" stroke-linejoin="round"></path>
            <path d="M113.755639,386.858011 C92.949387,324.744967 82.3379303,277.285761 81.9212693,244.48039 C81.5046082,211.67502 90.9105059,164.215813 110.138962,102.10277" id="Path-4" stroke-opacity="0.566351617" stroke="#653E3E" stroke-width="8" stroke-linecap="round" transform="translate(97.8318, 244.4804) rotate(-2) translate(-97.8318, -244.4804)"></path>
            <path d="M753.045753,375.984952 C732.239501,313.871909 721.628044,266.412702 721.211383,233.607332 C720.794722,200.801961 730.20062,153.342754 749.429077,91.2297113" id="Path-4" stroke-opacity="0.566351617" stroke="#653E3E" stroke-width="8" stroke-linecap="round" transform="translate(737.1219, 233.6073) scale(-1, 1) rotate(2) translate(-737.1219, -233.6073)"></path>
            <g id="Combined-Shape">
                <use fill="url(#linearGradient-2)" fill-rule="evenodd" xlink:href="#path-3"></use>
                <use fill="black" fill-opacity="1" filter="url(#filter-4)" xlink:href="#path-3"></use>
                <path stroke="#323232" stroke-width="6" d="M133.858178,-2 C131.994764,8.80664318 140.282093,18.7107673 155.283886,27.8241551 C170.568985,37.1096473 192.980785,45.4349954 220.780879,52.4303101 C275.860255,66.289888 351.953083,74.8478261 436,74.8478261 C520.046917,74.8478261 596.139745,66.289888 651.219121,52.4303101 C679.019215,45.4349954 701.431015,37.1096473 716.716114,27.8241551 C731.717907,18.7107673 740.005236,8.80664318 738.141822,-2 L779.865344,-2 C781.256878,13.5132709 771.8349,28.5406409 752.921726,42.0647011 C735.426801,54.5746279 709.803986,65.8670263 677.97539,75.2942643 C616.048487,93.6362502 530.499388,105 436,105 C341.500612,105 255.951513,93.6362502 194.02461,75.2942643 C162.196014,65.8670263 136.573199,54.5746279 119.078274,42.0647011 C100.1651,28.5406409 90.7431217,13.5132709 92.1346563,-2 Z"></path>
            </g>
        </g>
    </g>
</svg>